<svg xmlns="http://www.w3.org/2000/svg" width="9" height="13" viewBox="0 0 9 13">
    <g fill="#FF5607" fill-rule="evenodd">
        <path d="M1.286 11.7V5.2h6.428l-.002 6.5H1.286zM7.714 1.3v2.6H1.286V1.3h6.428zm0-1.3H1.286C.576 0 0 .584 0 1.3v10.4c0 .717.577 1.3 1.286 1.3h6.428C8.424 13 9 12.417 9 11.7V1.3C9 .584 8.424 0 7.714 0z"/>
        <path d="M2.571 5.85a.647.647 0 0 0-.642.65c0 .36.288.65.642.65.356 0 .643-.29.643-.65a.646.646 0 0 0-.643-.65M4.5 5.85a.647.647 0 0 0-.643.65c0 .36.288.65.643.65.356 0 .643-.29.643-.65a.646.646 0 0 0-.643-.65M6.429 5.85a.647.647 0 0 0-.643.65c0 .36.288.65.643.65.355 0 .642-.29.642-.65a.646.646 0 0 0-.642-.65M7.071 1.95H5.786v1.3H7.07zM2.571 7.8a.647.647 0 0 0-.642.65c0 .36.288.65.642.65.356 0 .643-.29.643-.65a.646.646 0 0 0-.643-.65M4.5 7.8a.647.647 0 0 0-.643.65c0 .36.288.65.643.65.356 0 .643-.29.643-.65A.646.646 0 0 0 4.5 7.8M6.429 7.8a.647.647 0 0 0-.643.65c0 .36.288.65.643.65.355 0 .642-.29.642-.65a.646.646 0 0 0-.642-.65M2.571 9.75a.647.647 0 0 0-.642.65c0 .36.288.65.642.65.356 0 .643-.29.643-.65a.646.646 0 0 0-.643-.65M4.5 9.75a.647.647 0 0 0-.643.65c0 .36.288.65.643.65.356 0 .643-.29.643-.65a.646.646 0 0 0-.643-.65M6.429 9.75a.647.647 0 0 0-.643.65c0 .36.288.65.643.65.355 0 .642-.29.642-.65a.646.646 0 0 0-.642-.65"/>
    </g>
</svg>
