<svg xmlns="http://www.w3.org/2000/svg" width="13" height="9" viewBox="0 0 13 9">
    <g fill="#FF5607" fill-rule="evenodd">
        <path d="M4.317 4.462c1.278 0 2.317-1 2.317-2.23C6.634 1 5.594 0 4.317 0 3.039 0 2 1 2 2.231c0 1.23 1.04 2.231 2.317 2.231M4.634 5C1.906 5 0 6.376 0 8.347v.558h9.268v-.558C9.268 6.377 7.362 5 4.634 5M9.375 4c-.735 0-1.402.257-1.941.672a6.39 6.39 0 0 1 2.671 2.497h2.455A3.177 3.177 0 0 0 9.375 4M7.434 1.584A1.59 1.59 0 0 0 9.027 3.17c.879 0 1.592-.71 1.592-1.585A1.59 1.59 0 0 0 9.027 0c-.88 0-1.593.71-1.593 1.584"/>
    </g>
</svg>
