<svg xmlns="http://www.w3.org/2000/svg" width="13" height="12" viewBox="0 0 13 12">
    <g fill="#FF5607" fill-rule="evenodd">
        <path d="M4.315 8.54c0 .85-.743 1.538-1.657 1.538C1.742 10.078 1 9.39 1 8.54S1.742 7 2.658 7c.914 0 1.657.689 1.657 1.54"/>
        <path d="M6.442 11.847C6.147 10.787 5.118 10 3.885 10H2.559C1.324 10 .296 10.787 0 11.847h6.442zM11.315 8.54c0 .85-.743 1.538-1.657 1.538C8.742 10.078 8 9.39 8 8.54S8.742 7 9.658 7c.914 0 1.657.689 1.657 1.54"/>
        <path d="M12.442 11.847C12.147 10.787 11.118 10 9.885 10H8.559c-1.235 0-2.263.787-2.559 1.847h6.442zM8.315 1.54c0 .85-.743 1.538-1.657 1.538C5.742 3.078 5 2.39 5 1.54S5.742 0 6.658 0c.914 0 1.657.689 1.657 1.54M9.442 5.847C9.147 4.787 8.118 4 6.885 4H5.559C4.324 4 3.296 4.787 3 5.847h6.442z"/>
    </g>
</svg>
