<svg xmlns="http://www.w3.org/2000/svg" width="12" height="12" viewBox="0 0 12 12">
    <g fill="#FF5607" fill-rule="evenodd">
        <path d="M8.048 6.19h1.238a3.718 3.718 0 0 0-3.714-3.714v1.238a2.479 2.479 0 0 1 2.476 2.477"/>
        <path d="M5.572 0v1.238a4.958 4.958 0 0 1 4.952 4.953h1.238A6.198 6.198 0 0 0 5.572 0M5.572 4.952v1.239H6.81c0-.684-.555-1.239-1.238-1.239"/>
        <path d="M9.905 8.048H7.429a.618.618 0 0 0-.62.619v.619c-2.476 0-4.294-1.896-4.333-4.334h.62c.342 0 .618-.276.618-.619V1.857a.618.618 0 0 0-.619-.619H.62a.618.618 0 0 0-.619.62v3.094a6.81 6.81 0 0 0 6.81 6.81h3.095c.342 0 .619-.277.619-.619V8.667a.618.618 0 0 0-.62-.62"/>
    </g>
</svg>
