<svg xmlns="http://www.w3.org/2000/svg" width="13" height="10" viewBox="0 0 13 10">
    <g fill="#FFF" fill-rule="evenodd">
        <path d="M4.44 4.462c1.279 0 2.318-1 2.318-2.23C6.758 1 5.718 0 4.44 0 3.163 0 2.124 1 2.124 2.231c0 1.23 1.04 2.231 2.317 2.231M4.634 5.149C1.906 5.149 0 6.525 0 8.496v.557h9.268v-.557c0-1.971-1.906-3.347-4.634-3.347M9.558 3.96c-.735 0-1.402.257-1.941.673a6.39 6.39 0 0 1 2.67 2.496h2.456a3.177 3.177 0 0 0-3.185-3.168M7.965 1.584A1.59 1.59 0 0 0 9.558 3.17c.879 0 1.592-.71 1.592-1.585A1.59 1.59 0 0 0 9.558 0c-.88 0-1.593.71-1.593 1.584"/>
    </g>
</svg>
