<svg xmlns="http://www.w3.org/2000/svg" width="14" height="13" viewBox="0 0 14 13">
    <g fill="#FFF" fill-rule="evenodd">
        <path d="M4.879 8.311c0 .85-.743 1.54-1.658 1.54-.915 0-1.657-.69-1.657-1.54 0-.85.742-1.539 1.657-1.539s1.658.69 1.658 1.54M6.442 12.313c-.295-1.06-1.324-1.847-2.558-1.847H2.558c-1.234 0-2.262.787-2.558 1.847h6.442zM11.697 8.311c0 .85-.743 1.54-1.658 1.54-.916 0-1.658-.69-1.658-1.54 0-.85.742-1.539 1.658-1.539.915 0 1.658.69 1.658 1.54M13.26 12.313c-.296-1.06-1.324-1.847-2.558-1.847H9.376c-1.234 0-2.263.787-2.558 1.847h6.442zM8.288 1.54c0 .85-.743 1.538-1.658 1.538-.916 0-1.657-.689-1.657-1.539S5.714 0 6.63 0c.915 0 1.658.689 1.658 1.54M9.851 5.54c-.295-1.06-1.324-1.846-2.558-1.846H5.967c-1.234 0-2.263.787-2.558 1.847H9.85z"/>
    </g>
</svg>
