<svg xmlns="http://www.w3.org/2000/svg" width="13" height="13" viewBox="0 0 13 13">
    <g fill="#FFF" fill-rule="evenodd">
        <path d="M10.252 7.048c.528 0 .96.433.96.961a.964.964 0 0 1-.96.961.964.964 0 0 1-.962-.961c0-.528.433-.961.962-.961M6.407 7.048c.529 0 .961.433.961.961a.964.964 0 0 1-.96.961.964.964 0 0 1-.962-.961c0-.528.433-.961.961-.961M2.563 7.048c.528 0 .961.433.961.961a.964.964 0 0 1-.961.961.964.964 0 0 1-.961-.961c0-.528.432-.961.96-.961M12.567 4.62L6.801.135a.642.642 0 0 0-.787 0L.247 4.62a.643.643 0 0 0 .394 1.147h11.533a.642.642 0 0 0 .393-1.147M3.844 12.814H1.281v-1.922a1.282 1.282 0 0 1 2.563 0v1.922zM7.689 12.814H5.126v-1.922a1.282 1.282 0 0 1 2.563 0v1.922zM11.533 12.814H8.97v-1.922a1.282 1.282 0 0 1 2.563 0v1.922z"/>
    </g>
</svg>
